<?xml version="1.0" encoding="UTF-8"?>
<svg xmlns="http://www.w3.org/2000/svg" id="Layer_1" data-name="Layer 1" viewBox="0 0 24 24">
  <path d="m10.288,11.067c1.755-.338,3.542.879,3.7,2.659.158,1.78-1.24,3.274-2.988,3.274h-4c-.681,0-1.163-.656-.961-1.307.499-1.608,1.936-4.181,4.249-4.626Zm9.712.933c-.552,0-1,.447-1,1v6c0,1.654-1.346,3-3,3H5c-1.654,0-3-1.346-3-3v-11c0-1.654,1.346-3,3-3h7c.552,0,1-.447,1-1s-.448-1-1-1h-7C2.243,3,0,5.243,0,8v11c0,2.757,2.243,5,5,5h11c2.757,0,5-2.243,5-5v-6c0-.553-.448-1-1-1ZM23.139.863c-1.149-1.15-3.012-1.151-4.162-.002-.039.039-6.728,7.28-6.728,7.28-.452.506-.263,1.29.357,1.565.007.003.014.006.021.009.386.173.838.068,1.119-.248l6.611-7.157c.348-.389.946-.422,1.334-.074.013.012.025.023.038.036.369.368.369.965.001,1.334,0,0,0,0-.001.001l-6.879,6.686c-.331.331-.378.844-.123,1.237.004.006.008.012.011.017.339.529,1.078.606,1.522.162l6.878-6.685c1.148-1.15,1.148-3.013,0-4.163Z"/>
</svg>
