<?xml version="1.0" encoding="UTF-8"?>
<svg xmlns="http://www.w3.org/2000/svg" id="Layer_1" data-name="Layer 1" viewBox="0 0 24 24" width="512" height="512"><path d="m2.876,7.118l13.189,13.189c-.715.254-1.489.441-2.314.559L1.602,8.718c.361-.517.781-1.06,1.274-1.6ZM.179,11.181c-.237.521-.237,1.118,0,1.64.041.091.094.199.147.308l6.911,6.911c1.107.476,2.361.8,3.766.908L.529,10.473c-.143.272-.261.514-.35.708Zm19.51,7.065l4.292,4.292-1.414,1.414L.019,1.403,1.433-.011l4.58,4.58c1.809-1.042,3.819-1.57,5.988-1.57,7.498,0,10.944,6.261,11.821,8.18.238.521.238,1.119,0,1.639-.478,1.046-1.77,3.485-4.134,5.427ZM8.541,7.097l1.446,1.446c1.531-.891,3.531-.682,4.842.628s1.52,3.311.628,4.842l1.446,1.446c1.653-2.341,1.433-5.609-.66-7.702-2.093-2.094-5.362-2.314-7.702-.66Z"/></svg>
