<svg id="Layer_1" viewBox="0 0 24 24" xmlns="http://www.w3.org/2000/svg" data-name="Layer 1"><path d="m8.782 15h-6.782c-.552 0-1-.447-1-1s.448-1 1-1h6.782c-.436-.427-.893-.833-1.382-1.2-.442-.331-.532-.958-.201-1.399.332-.442.958-.53 1.4-.2 1.212.908 2.289 1.984 3.2 3.199.253.362.253.839 0 1.201-.912 1.215-1.988 2.291-3.2 3.199-.438.329-1.067.245-1.4-.2-.331-.441-.241-1.068.201-1.399.489-.367.945-.773 1.382-1.2zm13.218-3.053c0 5.117-.988 9.127-1.03 9.295-.09.358-.37.639-.728.728-.168.042-4.167 1.03-8.243 1.03s-8.074-.988-8.243-1.03c-.358-.089-.638-.369-.728-.728-.012-.049-.304-1.226-.576-3.099-.079-.547.3-1.054.846-1.133.549-.085 1.054.299 1.133.846.146 1.007.299 1.807.404 2.309 1.239.267 4.222.835 7.162.835s5.924-.567 7.162-.835c.265-1.271.838-4.451.838-8.165 0-1.044-.073-2.044-.188-3.048-.377.018-.762.048-1.121.048-2.215 0-3.985-.306-4.079-.321-.399-.07-.716-.374-.804-.77-.016-.073-.361-1.724-.294-4.849-.466-.038-.971-.06-1.514-.06-2.946 0-5.924.567-7.162.835-.218 1.043-.643 3.37-.788 6.216-.027.552-.502.987-1.049.948-.552-.028-.976-.498-.948-1.05.207-4.076.945-7.066.977-7.191.09-.358.37-.639.728-.728.168-.042 4.167-1.03 8.243-1.03 1.222 0 2.279.088 3.142.262.185.037.355.126.492.256l5.721 5.442c.16.152.265.353.298.57.233 1.491.347 2.936.347 4.417zm-6.341-5.14c.642.08 1.668.178 2.832.189l-2.988-2.843c.011 1.211.088 2.103.156 2.654z"/></svg>